<?xml version="1.0" encoding="utf-8"?>
<svg viewBox="136.84982299804688 -8.09583854675293 212.47999572753906 170.06031799316406" width="64.50260925292969" height="66.73999786376953" xmlns="http://www.w3.org/2000/svg">
  <path d="M 752.083 560.895 A 102.01 102.01 0 0 1 561.238 542.536 L 600.129 532.48 A 61.84 61.84 0 0 0 715.822 543.61 Z" transform="matrix(0.202922, 0.225369, -0.179798, 0.161891, 144.08345, -110.931587)" style="fill: rgb(255, 236, 165);"/>
  <path d="M 667.323 621.104 A 104.361 104.361 0 0 1 557.303 498.44 L 598.616 505.907 A 62.379 62.379 0 0 0 664.377 579.225 Z" transform="matrix(-0.325408, 0.144881, 0.162621, 0.365254, 272.945282, -168.155304)" style="fill: rgb(255, 192, 44);"/>
  <path d="M 194.262 92.385 L 198.232 87.615 L 198.232 87.615 C 199.225 88.368 200.282 88.982 201.402 89.455 L 201.402 89.455 L 201.402 89.455 C 202.522 89.928 203.595 90.165 204.622 90.165 L 204.622 90.165 L 204.622 90.165 C 205.835 90.165 206.679 90.002 207.152 89.675 L 207.152 89.675 L 207.152 89.675 C 207.625 89.355 207.862 88.898 207.862 88.305 L 207.862 88.305 L 207.862 88.305 C 207.862 87.978 207.779 87.708 207.612 87.495 L 207.612 87.495 L 207.612 87.495 C 207.452 87.275 207.212 87.072 206.892 86.885 L 206.892 86.885 L 206.892 86.885 C 206.565 86.698 206.165 86.515 205.692 86.335 L 205.692 86.335 L 205.692 86.335 C 205.219 86.162 204.672 85.968 204.052 85.755 L 204.052 85.755 L 200.782 84.375 L 200.782 84.375 C 200.022 84.108 199.305 83.752 198.632 83.305 L 198.632 83.305 L 198.632 83.305 C 197.959 82.858 197.372 82.332 196.872 81.725 L 196.872 81.725 L 196.872 81.725 C 196.372 81.118 195.975 80.425 195.682 79.645 L 195.682 79.645 L 195.682 79.645 C 195.382 78.858 195.232 77.995 195.232 77.055 L 195.232 77.055 L 195.232 77.055 C 195.232 75.922 195.475 74.862 195.962 73.875 L 195.962 73.875 L 195.962 73.875 C 196.449 72.888 197.129 72.025 198.002 71.285 L 198.002 71.285 L 198.002 71.285 C 198.882 70.545 199.935 69.958 201.162 69.525 L 201.162 69.525 L 201.162 69.525 C 202.389 69.092 203.759 68.875 205.272 68.875 L 205.272 68.875 L 205.272 68.875 C 206.832 68.875 208.395 69.158 209.962 69.725 L 209.962 69.725 L 209.962 69.725 C 211.529 70.292 212.959 71.182 214.252 72.395 L 214.252 72.395 L 210.772 76.765 L 210.772 76.765 C 209.825 76.145 208.935 75.675 208.102 75.355 L 208.102 75.355 L 208.102 75.355 C 207.269 75.028 206.325 74.865 205.272 74.865 L 205.272 74.865 L 205.272 74.865 C 203.272 74.865 202.272 75.458 202.272 76.645 L 202.272 76.645 L 202.272 76.645 C 202.272 77.265 202.632 77.738 203.352 78.065 L 203.352 78.065 L 203.352 78.065 C 204.065 78.385 205.082 78.788 206.402 79.275 L 206.402 79.275 L 209.442 80.535 L 209.442 80.535 C 211.222 81.182 212.589 82.085 213.542 83.245 L 213.542 83.245 L 213.542 83.245 C 214.502 84.405 214.982 85.902 214.982 87.735 L 214.982 87.735 L 214.982 87.735 C 214.982 88.842 214.752 89.908 214.292 90.935 L 214.292 90.935 L 214.292 90.935 C 213.832 91.955 213.159 92.852 212.272 93.625 L 212.272 93.625 L 212.272 93.625 C 211.379 94.392 210.279 95.005 208.972 95.465 L 208.972 95.465 L 208.972 95.465 C 207.665 95.925 206.162 96.155 204.462 96.155 L 204.462 96.155 L 204.462 96.155 C 202.735 96.155 200.975 95.852 199.182 95.245 L 199.182 95.245 L 199.182 95.245 C 197.389 94.632 195.749 93.678 194.262 92.385 L 194.262 92.385 ZM 225.422 95.665 L 225.422 75.185 L 217.852 75.185 L 217.852 69.365 L 239.952 69.365 L 239.952 75.185 L 232.382 75.185 L 232.382 95.665 L 225.422 95.665 ZM 243.712 95.665 L 243.712 89.835 L 249.702 89.835 L 249.702 75.185 L 243.712 75.185 L 243.712 69.365 L 262.652 69.365 L 262.652 75.185 L 256.662 75.185 L 256.662 89.835 L 262.652 89.835 L 262.652 95.665 L 243.712 95.665 ZM 267.672 95.665 L 267.672 69.365 L 274.512 69.365 L 276.732 77.945 L 277.462 81.335 L 277.582 81.335 L 278.312 77.945 L 280.412 69.365 L 287.252 69.365 L 287.252 95.665 L 281.672 95.665 L 281.672 89.475 L 281.672 89.475 C 281.672 88.695 281.705 87.702 281.772 86.495 L 281.772 86.495 L 281.772 86.495 C 281.838 85.295 281.912 84.055 281.992 82.775 L 281.992 82.775 L 281.992 82.775 C 282.072 81.495 282.168 80.262 282.282 79.075 L 282.282 79.075 L 282.282 79.075 C 282.388 77.888 282.482 76.902 282.562 76.115 L 282.562 76.115 L 282.442 76.115 L 280.252 83.925 L 278.882 88.665 L 275.882 88.665 L 274.512 83.925 L 272.442 76.115 L 272.282 76.115 L 272.282 76.115 C 272.362 76.902 272.455 77.888 272.562 79.075 L 272.562 79.075 L 272.562 79.075 C 272.675 80.262 272.772 81.495 272.852 82.775 L 272.852 82.775 L 272.852 82.775 C 272.932 84.055 273.005 85.295 273.072 86.495 L 273.072 86.495 L 273.072 86.495 C 273.138 87.702 273.172 88.695 273.172 89.475 L 273.172 89.475 L 273.172 95.665 L 267.672 95.665 ZM 299.272 84.695 L 303.972 84.695 L 303.562 82.875 L 303.562 82.875 C 303.268 81.608 302.958 80.232 302.632 78.745 L 302.632 78.745 L 302.632 78.745 C 302.305 77.265 301.982 75.865 301.662 74.545 L 301.662 74.545 L 301.502 74.545 L 301.502 74.545 C 301.202 75.892 300.898 77.302 300.592 78.775 L 300.592 78.775 L 300.592 78.775 C 300.278 80.242 299.975 81.608 299.682 82.875 L 299.682 82.875 L 299.272 84.695 Z M 306.522 95.665 L 305.222 90.085 L 298.022 90.085 L 296.722 95.665 L 289.602 95.665 L 297.532 69.365 L 305.952 69.365 L 313.882 95.665 L 306.522 95.665 ZM 322.542 95.665 L 322.542 75.185 L 314.972 75.185 L 314.972 69.365 L 337.072 69.365 L 337.072 75.185 L 329.502 75.185 L 329.502 95.665 L 322.542 95.665 ZM 341.642 95.665 L 341.642 69.365 L 359.452 69.365 L 359.452 75.185 L 348.602 75.185 L 348.602 79.315 L 357.832 79.315 L 357.832 85.145 L 348.602 85.145 L 348.602 89.835 L 359.852 89.835 L 359.852 95.665 L 341.642 95.665 Z" transform="matrix(0.814115047454834, -0.5807039737701416, 1.2554270029067993, 1.760043978691101, -71.55964660644531, 85.82064819335938)" style="fill: rgb(102, 102, 102); line-height: 47.5407px; white-space: pre;"/>
</svg>